<svg width="25" height="24" viewBox="0 0 25 24" fill="none" xmlns="http://www.w3.org/2000/svg">
<g clip-path="url(#clip0_307_225)">
<path d="M22.5001 4.26666L20.0334 1.8C19.8214 1.59785 19.5397 1.48508 19.2467 1.48508C18.9538 1.48508 18.6721 1.59785 18.4601 1.8L16.2667 4H4.50008C4.14646 4 3.80732 4.14047 3.55727 4.39052C3.30722 4.64057 3.16675 4.97971 3.16675 5.33333V20C3.16675 20.3536 3.30722 20.6928 3.55727 20.9428C3.80732 21.1929 4.14646 21.3333 4.50008 21.3333H19.1667C19.5204 21.3333 19.8595 21.1929 20.1096 20.9428C20.3596 20.6928 20.5001 20.3536 20.5001 20V7.84L22.5001 5.84C22.7085 5.63125 22.8256 5.34832 22.8256 5.05333C22.8256 4.75834 22.7085 4.47541 22.5001 4.26666ZM13.0534 13.42L10.2601 14.04L10.9267 11.2733L17.2934 4.89333L19.4467 7.04666L13.0534 13.42ZM20.1667 6.28666L18.0134 4.13333L19.2467 2.9L21.4001 5.05333L20.1667 6.28666Z" fill="#007EF2"/>
</g>
<defs>
<clipPath id="clip0_307_225">
<rect width="24" height="24" fill="white" transform="translate(0.5)"/>
</clipPath>
</defs>
</svg>
